<?xml version="1.0" encoding="utf-8"?>
<!-- Generator: Adobe Illustrator 26.1.0, SVG Export Plug-In . SVG Version: 6.00 Build 0)  -->
<svg version="1.1" id="Layer_1" xmlns="http://www.w3.org/2000/svg" xmlns:xlink="http://www.w3.org/1999/xlink" x="0px" y="0px"
	 viewBox="0 0 677.4 677.4" style="enable-background:new 0 0 677.4 677.4;" xml:space="preserve">
<g>
	<path d="M145.49,576.9c44.64,0,88.08,0,131.52,0c43.37,0,86.74,0,130.96,0c0,24.79,0,48.33,0,72.63c-112.01,0-223.36,0-335.62,0
		c0-207.33,0-414.02,0-621.66c111.57,0,222.94,0,335.35,0c0,23.54,0,47.07,0,72.03c-87.21,0-174.31,0-262.06,0
		c0,67.69,0,133.96,0,201.74c80.29,0,160.71,0,242.07,0c0,25.01,0,48.54,0,73.55c-80.77,0-161.22,0-242.22,0
		C145.49,442.92,145.49,509.19,145.49,576.9z"/>
	<path d="M440.39,545.67c-3.61,0.78-7.25,1.51-10.91,2.13c-12.37,2.18-25.02,3.46-37.49,3.56c-61.5,0.55-123,0.33-184.52,0.28h-0.3
		c-7.38-0.03-14.78-0.03-22.16-0.03h-13.55V401.47h72.09v75.05c0,0.33,0.53,0.63,1.48,0.88c10.61,2.76,75.02,0.48,82.63,0.43
		c15.68-0.08,31.36-0.13,47.05-0.43c9.41-0.18,18.79-0.43,28.2-0.8c66.99-2.73,122.04-58.01,127.97-125.66
		c6-68.45-39.9-132.38-106.11-147.46c-8.93-2.03-18.17-3.54-27.27-3.61c-48.93-0.43-97.83-0.35-146.76-0.38
		c-1.58,0-3.14,0.75-6.1,1.51v74.47h-73.29V126.62c4.22-0.33,8.58-0.98,12.97-0.98c69.4-0.08,138.83-0.35,208.23,0
		c108.17,0.55,199.22,82.68,211.24,190.09C615.62,421.34,543.69,522.93,440.39,545.67z"/>
	<path d="M374.7,477.39c-15.68,0.3-31.36,0.35-47.05,0.43c-7.6,0.05-72.01,2.33-82.63-0.43H374.7z"/>
</g>
</svg>
